<svg width="40" height="40" viewBox="0 0 40 40" fill="none" xmlns="http://www.w3.org/2000/svg">
<path d="M23.472 17.6848L17.088 24.504C16.5466 25.1091 15.7758 25.459 14.9638 25.4685C14.1518 25.4779 13.3731 25.1459 12.8177 24.5536C11.5906 23.2726 11.6112 21.2461 12.8641 19.9904L21.4384 10.8208C22.3843 9.76786 23.7304 9.16283 25.1458 9.15461C26.561 9.14638 27.9141 9.73571 28.872 10.7776C30.9155 13.0358 30.901 16.4792 28.8384 18.72L19.7472 28.4336C18.4534 29.7323 16.6824 30.4418 14.8498 30.3954C13.0172 30.3491 11.2843 29.5512 10.0577 28.1888C7.25392 25.0262 7.32328 20.2478 10.2177 17.168L18.8048 8" stroke="#7A797C" stroke-width="2" stroke-linecap="round" stroke-linejoin="round"/>
</svg>
