<svg width="41" height="41" viewBox="0 0 41 41" fill="none" xmlns="http://www.w3.org/2000/svg">
<path fill-rule="evenodd" clip-rule="evenodd" d="M30.3515 33.3788V10.7156C30.359 9.83832 30.0176 8.994 29.4024 8.36843C28.7873 7.74283 27.9489 7.38725 27.0715 7.37988H13.9516C13.0742 7.38725 12.2358 7.74283 11.6207 8.36843C11.0056 8.994 10.6641 9.83832 10.6716 10.7156V33.3788C10.5936 34.0332 10.9149 34.6706 11.4872 34.9973C12.0596 35.3238 12.7719 35.2761 13.2956 34.8761L19.5275 29.4953C20.0893 28.9882 20.9436 28.9882 21.5053 29.4953L27.7276 34.8778C28.2515 35.2781 28.9642 35.3258 29.5367 34.9986C30.1093 34.6716 30.4304 34.0335 30.3515 33.3788Z" stroke="#7A797C" stroke-width="2" stroke-linecap="round" stroke-linejoin="round"/>
</svg>
