<svg width="10" height="10" viewBox="0 0 12 12" fill="none" xmlns="http://www.w3.org/2000/svg">
<path d="M5.76068 9.96781C3.44019 9.96781 1.56519 8.09281 1.56519 5.77231C1.56519 3.45181 3.44019 1.56519 
5.76068 1.56519C8.08118 1.56519 9.96781 3.45181 9.96781 5.77231C9.96781 8.09281 8.08118 9.96781 5.76068 9.96781ZM5.76068 
2.60844C4.02631 2.60844 2.62006 4.03831 2.62006 5.77269C2.62006 7.50706 4.02631 8.91331 5.76068 8.91331C7.49506 8.91331 
8.92493 7.50706 8.92493 5.77269C8.92493 4.03831 7.49506 2.60844 5.76068 2.60844ZM6.89731 7.37769L5.40894 6.28794C5.30356 
6.20581 5.19781 6.02994 5.19781 5.88931V3.51031C5.19781 3.38131 5.31519 3.27594 5.45581 3.27594H5.94818C6.07719 3.27594 
6.18256 3.38131 6.18256 3.51031V5.38531C6.18256 5.52594 6.28794 5.70181 6.39369 5.78394L7.48344 6.56919C7.58881 6.65131 
7.61243 6.81519 7.53031 6.92094L7.23744 7.31956C7.15531 7.42493 7.00306 7.44856 6.89769 7.37806L6.89731 7.37769Z" 
fill="#7A797C"/>
</svg>
