<svg width="28" height="41" viewBox="0 0 28 41" fill="none" xmlns="http://www.w3.org/2000/svg">
<path d="M16.6562 19.3302C16.6562 20.8044 17.8559 22.0041 19.3302 22.0041C20.8044 22.0041 22.0041 20.8044 22.0041 19.3302C22.0041 17.8559 20.8044 16.6562 19.3302 16.6562C17.8559 16.6562 16.6562 17.8559 16.6562 19.3302Z" fill="#7A797C"/>
<path d="M16.6562 32.1427C16.6562 33.6169 17.8559 34.8166 19.3302 34.8166C20.8044 34.8166 22.0041 33.6169 22.0041 32.1427C22.0041 30.6684 20.8044 29.4688 19.3302 29.4688C17.8559 29.4688 16.6562 30.6684 16.6562 32.1427Z" fill="#7A797C"/>
<path d="M16.6562 6.51766C16.6562 7.99188 17.8559 9.19158 19.3302 9.19158C20.8044 9.19158 22.0041 7.99188 22.0041 6.51766C22.0041 5.04345 20.8044 3.84375 19.3302 3.84375C17.8559 3.84375 16.6562 5.04345 16.6562 6.51766Z" fill="#7A797C"/>
</svg>
