<svg width="41" height="41" viewBox="0 0 41 41" fill="none" xmlns="http://www.w3.org/2000/svg">
<path fill-rule="evenodd" clip-rule="evenodd" 
d="M17.1131 22.0339C17.1131 20.2224 18.5815 18.7539 20.3931 18.7539C22.2046 18.7539 23.6731 20.2224 23.6731 22.0339C23.6731 23.8455 22.2046 25.3139 20.3931 25.3139C19.5232 25.3139 18.6889 24.9684 18.0738 24.3532C17.4586 23.738 17.1131 22.9038 17.1131 22.0339Z" 
stroke="#C6D300" stroke-width="2" stroke-linecap="round" stroke-linejoin="round"/>
<path fill-rule="evenodd" clip-rule="evenodd" d="M12.4013 12.3135L16.8818 9.82072C19.0668 8.61054 21.721 8.61054 23.9059 9.82072L28.3864 12.3135C30.5246 13.4824 31.8598 15.72 31.8731 18.1568V25.0153C31.8155 28.8601 28.6526 31.9303 24.8079 31.8737H15.9782C12.1335 31.9303 8.9706 28.8601 8.91306 25.0153V18.1568C8.92665 15.7196 10.2625 13.482 12.4013 12.3135Z"
 stroke="#C6D300" stroke-width="2" stroke-linecap="round" stroke-linejoin="round"/>
</svg>
