<svg width="33" height="33" viewBox="0 0 33 33" fill="none" xmlns="http://www.w3.org/2000/svg">
<path d="M15.51 13.6937C15.51 14.2404 15.9533 14.6837 16.5 14.6837C17.0467 14.6837 17.49 14.2404 17.49 13.6937H15.51ZM17.49 5.94001C17.49 5.39326 17.0467 4.95001 16.5 4.95001C15.9533 4.95001 15.51 5.39326 15.51 5.94001H17.49ZM12.9503 9.45327C13.4479 9.22669 13.6675 8.63961 13.441 8.14201C13.2144 7.64441 12.6273 7.42472 12.1297 7.65131L12.9503 9.45327ZM7.26 16.7112L6.26987 16.7061L6.27007 16.7227L7.26 16.7112ZM16.5 25.74L16.5114 24.75C16.5038 24.75 16.4962 24.75 16.4886 24.75L16.5 25.74ZM25.74 16.7112L26.7301 16.7227L26.73 16.7061L25.74 16.7112ZM20.8703 7.65131C20.3726 7.42472 19.7856 7.64441 19.559 8.14201C19.3325 8.63961 19.5521 9.22669 20.0497 9.45327L20.8703 7.65131ZM17.49 13.6937V5.94001H15.51V13.6937H17.49ZM12.1297 7.65131C8.57793 9.26867 6.29031 12.8034 6.26987 16.7061L8.24999 16.7164C8.26639 13.5859 10.1012 10.7506 12.9503 9.45327L12.1297 7.65131ZM6.27007 16.7227C6.33514 22.3141 10.9201 26.7942 16.5114 26.73L16.4886 24.75C11.9907 24.8018 8.30228 21.1976 8.24993 16.6997L6.27007 16.7227ZM16.4886 26.73C22.0799 26.7942 26.6652 22.3141 26.7301 16.7227L24.7501 16.6997C24.6977 21.1976 21.0094 24.8018 16.5114 24.75L16.4886 26.73ZM26.73 16.7061C26.7095 12.8034 24.4221 9.26867 20.8703 7.65131L20.0497 9.45327C22.8987 10.7506 24.7336 13.5859 24.75 16.7164L26.73 16.7061Z" fill="#C6D300"/>
</svg>
