<svg id="Layer_1" data-name="Layer 1" xmlns="http://www.w3.org/2000/svg" viewBox="0 0 52.95 37.45"><defs><style>.cls-1{fill:#c6d300;stroke:#fff;stroke-miterlimit:10;}</style></defs><path id="Logo" class="cls-1" d="M74.43,48.06C72.14,35.26,67,31.49,64.3,31.49c-4.26,0-5.35,3.16-14.4,3.27-9-.11-10.14-3.27-14.39-3.27-2.72,0-7.85,3.77-10.14,16.57-1.3,7.3-2.72,18.2.66,19.51,4.2,1.63,5.63-2.44,10.25-5.88s6.93-4.31,13.62-4.31,8.94.82,13.63,4.31,6,7.51,10.25,5.88C77.16,66.26,75.74,55.36,74.43,48.06Zm-34.74-.12c-2.87,0-5.37,2.71-5.37-.16a5.2,5.2,0,1,1,10.39,0C44.71,50.65,42.55,47.94,39.69,47.94Zm21.64-.14c-2.87,0-5.41,2.87-5.41,0a5.2,5.2,0,0,1,10.39,0C66.31,50.67,64.2,47.8,61.33,47.8ZM75.1,52.11l-4.61.66,4.78.53Zm-48.87,15,1.41-3.92.41,4.16ZM38.84,48.26l.45,1.66.64-1.47Zm27.47-1.58,2.58.47L66.47,48ZM32,33.25l1.84,1.87-2.94-.63Z" transform="translate(-23.43 -30.99)"/></svg>