<svg id="Layer_1" data-name="Layer 1" xmlns="http://www.w3.org/2000/svg" viewBox="0 0 197.03 40.02"><defs><style>.cls-1{fill:#c6d300;stroke:#fff;}.cls-1,.cls-2,.cls-3{stroke-miterlimit:10;}.cls-2,.cls-3{font-size:37px;fill:#7a797c;font-family:aAhaWow, a Aha Wow;}.cls-2{stroke:#e8e6ee;}.cls-3{stroke:#f4f3f4;}</style></defs><g id="longLogo"><path class="cls-1" d="M150.29,47.29C148,34.5,142.88,30.72,140.15,30.72c-4.25,0-5.34,3.16-14.39,3.27-9.05-.11-10.14-3.27-14.39-3.27-2.73,0-7.85,3.78-10.14,16.57-1.31,7.31-2.73,18.21.65,19.52,4.21,1.63,5.63-2.45,10.25-5.89s6.94-4.31,13.63-4.31,8.94.82,13.63,4.31,6,7.52,10.25,5.89C153,65.5,151.6,54.6,150.29,47.29Zm-34.75-.11c-2.87,0-5.37,2.7-5.37-.17a5.2,5.2,0,0,1,10.39,0C120.56,49.88,118.41,47.18,115.54,47.18ZM137.18,47c-2.86,0-5.4,2.86-5.4,0a5.2,5.2,0,1,1,10.39,0C142.17,49.9,140.05,47,137.18,47ZM151,51.34l-4.61.66,4.78.53Zm-48.86,15,1.4-3.93.42,4.17Zm12.6-18.87.45,1.66.64-1.46Zm27.48-1.57,2.58.47-2.43.87ZM107.84,32.48l1.84,1.88-2.93-.63Z" transform="translate(-49.57 -29.52)"/><text class="cls-2" transform="translate(0.5 32.44)">Ga</text><text class="cls-3" transform="translate(103.74 32.44)">indie</text></g></svg>