<svg width="285" height="59" viewBox="0 0 285 59" margin="10" fill="none" xmlns="http://www.w3.org/2000/svg">
<path d="M150.573 26.9026C147.121 6.90898 139.402 1 135.287 1C128.88 1 127.237 5.93978 113.594 6.11173C99.9513 5.93978 98.3081 1 91.9013 1C87.7858 1 80.0675 6.90898 76.6153 26.9026C74.6405 38.3297 72.4999 55.3688 77.5952 57.4166C83.9417 59.9647 86.0824 53.5867 93.047 48.2093C100.012 42.8318 103.509 41.4718 113.594 41.4718C123.679 41.4718 127.071 42.7536 134.141 48.2093C141.211 53.6649 143.186 59.9647 149.593 57.4166C154.658 55.3688 152.548 38.3297 150.573 26.9026ZM98.1875 26.7306C93.861 26.7306 90.0923 30.9513 90.0923 26.4649C90.1808 24.3727 91.0446 22.3967 92.5036 20.9487C93.9626 19.5007 95.9042 18.6925 97.9237 18.6925C99.9432 18.6925 101.885 19.5007 103.344 20.9487C104.803 22.3967 105.667 24.3727 105.755 26.4649C105.755 30.9513 102.514 26.7306 98.1875 26.7306ZM130.81 26.4492C126.498 26.4492 122.669 30.92 122.669 26.4492C122.623 25.3528 122.791 24.258 123.164 23.2308C123.536 22.2036 124.106 21.2652 124.837 20.4724C125.569 19.6795 126.448 19.0485 127.422 18.6174C128.395 18.1863 129.442 17.9641 130.501 17.9641C131.559 17.9641 132.606 18.1863 133.58 18.6174C134.553 19.0485 135.432 19.6795 136.164 20.4724C136.896 21.2652 137.465 22.2036 137.838 23.2308C138.21 24.258 138.378 25.3528 138.332 26.4492C138.332 30.9826 135.136 26.4492 130.81 26.4492ZM151.643 33.2336L144.694 34.2653L151.899 35.0938L151.643 33.2336ZM77.9871 56.6819L80.0976 50.5385L80.7308 57.0571L77.9871 56.6819ZM96.9815 27.1839L97.6599 29.7789L98.6247 27.4966L96.9815 27.1839ZM138.407 24.7297L142.297 25.4644L138.633 26.8244L138.407 24.7297ZM86.5798 3.75127L89.3536 6.69012L84.9367 5.70529L86.5798 3.75127Z" fill="#C6D300"/>
<path d="M15.529 28.0551L31.9816 26.5858L32.336 32.8021L31.5766 32.8586C31.1717 38.8489 29.2986 43.4828 25.9574 46.7605C23.2575 49.3977 19.8995 50.7163 15.8833 50.7163C10.8547 50.7163 6.95671 48.0226 4.18929 42.6351C2.0631 38.4533 1 33.4802 1 27.716C1 21.236 2.31621 15.8109 4.94864 11.4406C7.61481 7.14574 11.0403 4.97945 15.2252 4.94178C19.9163 4.94178 23.8312 7.33411 26.9699 12.1188C27.1724 12.4202 27.358 12.7216 27.5268 13.023L19.9838 16.9223C19.1739 14.3981 18.0095 13.1171 16.4908 13.0795C14.2971 13.0795 12.6434 15.1704 11.5297 19.3523C10.821 22.0648 10.4666 25.0977 10.4666 28.4507C10.4666 33.9512 11.2597 37.907 12.8459 40.3182C13.6221 41.4107 14.4996 41.9758 15.4783 42.0135C17.267 42.0135 18.6845 40.6949 19.7307 38.0577C20.0682 37.1912 20.3213 36.2681 20.4901 35.2886L24.7931 33.4802L15.8833 34.2149L15.529 28.0551Z" fill="#7A797C"/>
<path d="M54.661 7.03271L67.8231 47.0431L55.6228 49.4166L53.6991 41.0528L44.9413 39.414L41.9039 49.3035L33.2472 46.0259L45.7006 6.0155L54.661 7.03271ZM49.6999 23.5342L46.6625 33.4802L52.2311 34.554L49.6999 23.5342Z" fill="#7A797C"/>
<path d="M168.477 49.4158L159.517 48.3421L156.884 9.688L169.084 7.31451L168.477 49.4158Z" fill="#7A797C"/>
<path d="M191.966 7.31451L200.977 8.38823L203.61 47.0423L191.359 49.4158L182.803 23.5899L182.348 46.0251L173.691 49.3028L174.197 5.73218L183.158 6.74939L191.612 32.2362L191.966 7.31451Z" fill="#7A797C"/>
<path d="M218.392 40.8825C222.239 38.8858 224.635 35.9095 225.58 31.9537C225.85 30.8988 225.985 29.825 225.985 28.7325C225.985 24.5883 224.399 20.8962 221.227 17.6562C220.484 16.9027 219.691 16.2245 218.847 15.6217L218.392 40.8825ZM206.242 11.3834L206.9 5.16706C217.666 5.73218 225.969 8.67079 231.807 13.9829C236.059 18.1648 238.253 22.7611 238.388 27.7718C238.388 32.8202 236.313 37.2658 232.161 41.1086C228.584 44.3486 223.96 46.6656 218.291 48.0595V48.3421L215.304 48.6811C213.11 49.0579 211.119 49.3028 209.33 49.4158L206.748 13.6438L212.671 12.4571C210.579 11.8543 208.436 11.4964 206.242 11.3834Z" fill="#7A797C"/>
<path d="M252.107 49.4158L243.147 48.3421L240.514 9.688L252.715 7.31451L252.107 49.4158Z" fill="#7A797C"/>
<path d="M256.41 11.3834L257.068 5.16706L284 6.63637L283.342 12.8527L269.117 12.0615L268.864 26.246L277.065 25.4548L276.71 31.6146L268.712 32.4623L268.56 42.6344L283.139 41.7867L282.836 47.9465L259.498 49.4158L256.916 13.6438L265.927 11.892L256.41 11.3834Z" fill="#7A797C"/>
<path d="M150.573 26.9026C147.121 6.90898 139.402 1 135.287 1C128.88 1 127.237 5.93978 113.594 6.11173C99.9513 5.93978 98.3081 1 91.9013 1C87.7858 1 80.0675 6.90898 76.6153 26.9026C74.6405 38.3297 72.4999 55.3688 77.5952 57.4166C83.9417 59.9647 86.0824 53.5867 93.047 48.2093C100.012 42.8318 103.509 41.4718 113.594 41.4718C123.679 41.4718 127.071 42.7536 134.141 48.2093C141.211 53.6649 143.186 59.9647 149.593 57.4166C154.658 55.3688 152.548 38.3297 150.573 26.9026ZM98.1875 26.7306C93.861 26.7306 90.0923 30.9513 90.0923 26.4649C90.1808 24.3727 91.0446 22.3967 92.5036 20.9487C93.9626 19.5007 95.9042 18.6925 97.9237 18.6925C99.9432 18.6925 101.885 19.5007 103.344 20.9487C104.803 22.3967 105.667 24.3727 105.755 26.4649C105.755 30.9513 102.514 26.7306 98.1875 26.7306ZM130.81 26.4492C126.498 26.4492 122.669 30.92 122.669 26.4492C122.623 25.3528 122.791 24.258 123.164 23.2308C123.536 22.2036 124.106 21.2652 124.837 20.4724C125.569 19.6795 126.448 19.0485 127.422 18.6174C128.395 18.1863 129.442 17.9641 130.501 17.9641C131.559 17.9641 132.606 18.1863 133.58 18.6174C134.553 19.0485 135.432 19.6795 136.164 20.4724C136.896 21.2652 137.465 22.2036 137.838 23.2308C138.21 24.258 138.378 25.3528 138.332 26.4492C138.332 30.9826 135.136 26.4492 130.81 26.4492ZM151.643 33.2336L144.694 34.2653L151.899 35.0938L151.643 33.2336ZM77.9871 56.6819L80.0976 50.5385L80.7308 57.0571L77.9871 56.6819ZM96.9815 27.1839L97.6599 29.7789L98.6247 27.4966L96.9815 27.1839ZM138.407 24.7297L142.297 25.4644L138.633 26.8244L138.407 24.7297ZM86.5798 3.75127L89.3536 6.69012L84.9367 5.70529L86.5798 3.75127Z" stroke="#F4F3F4" stroke-miterlimit="10"/>
<path d="M15.529 28.0551L31.9816 26.5858L32.336 32.8021L31.5766 32.8586C31.1717 38.8489 29.2986 43.4828 25.9574 46.7605C23.2575 49.3977 19.8995 50.7163 15.8833 50.7163C10.8547 50.7163 6.95671 48.0226 4.18929 42.6351C2.0631 38.4533 1 33.4802 1 27.716C1 21.236 2.31621 15.8109 4.94864 11.4406C7.61481 7.14574 11.0403 4.97945 15.2252 4.94178C19.9163 4.94178 23.8312 7.33411 26.9699 12.1188C27.1724 12.4202 27.358 12.7216 27.5268 13.023L19.9838 16.9223C19.1739 14.3981 18.0095 13.1171 16.4908 13.0795C14.2971 13.0795 12.6434 15.1704 11.5297 19.3523C10.821 22.0648 10.4666 25.0977 10.4666 28.4507C10.4666 33.9512 11.2597 37.907 12.8459 40.3182C13.6221 41.4107 14.4996 41.9758 15.4783 42.0135C17.267 42.0135 18.6845 40.6949 19.7307 38.0577C20.0682 37.1912 20.3213 36.2681 20.4901 35.2886L24.7931 33.4802L15.8833 34.2149L15.529 28.0551Z" stroke="#F4F3F4" stroke-miterlimit="10"/>
<path d="M54.661 7.03271L67.8231 47.0431L55.6228 49.4166L53.6991 41.0528L44.9413 39.414L41.9039 49.3035L33.2472 46.0259L45.7006 6.0155L54.661 7.03271ZM49.6999 23.5342L46.6625 33.4802L52.2311 34.554L49.6999 23.5342Z" stroke="#F4F3F4" stroke-miterlimit="10"/>
<path d="M168.477 49.4158L159.517 48.3421L156.884 9.688L169.084 7.31451L168.477 49.4158Z" stroke="#F4F3F4" stroke-miterlimit="10"/>
<path d="M191.966 7.31451L200.977 8.38823L203.61 47.0423L191.359 49.4158L182.803 23.5899L182.348 46.0251L173.691 49.3028L174.197 5.73218L183.158 6.74939L191.612 32.2362L191.966 7.31451Z" stroke="#F4F3F4" stroke-miterlimit="10"/>
<path d="M218.392 40.8825C222.239 38.8858 224.635 35.9095 225.58 31.9537C225.85 30.8988 225.985 29.825 225.985 28.7325C225.985 24.5883 224.399 20.8962 221.227 17.6562C220.484 16.9027 219.691 16.2245 218.847 15.6217L218.392 40.8825ZM206.242 11.3834L206.9 5.16706C217.666 5.73218 225.969 8.67079 231.807 13.9829C236.059 18.1648 238.253 22.7611 238.388 27.7718C238.388 32.8202 236.313 37.2658 232.161 41.1086C228.584 44.3486 223.96 46.6656 218.291 48.0595V48.3421L215.304 48.6811C213.11 49.0579 211.119 49.3028 209.33 49.4158L206.748 13.6438L212.671 12.4571C210.579 11.8543 208.436 11.4964 206.242 11.3834Z" stroke="#F4F3F4" stroke-miterlimit="10"/>
<path d="M252.107 49.4158L243.147 48.3421L240.514 9.688L252.715 7.31451L252.107 49.4158Z" stroke="#F4F3F4" stroke-miterlimit="10"/>
<path d="M256.41 11.3834L257.068 5.16706L284 6.63637L283.342 12.8527L269.117 12.0615L268.864 26.246L277.065 25.4548L276.71 31.6146L268.712 32.4623L268.56 42.6344L283.139 41.7867L282.836 47.9465L259.498 49.4158L256.916 13.6438L265.927 11.892L256.41 11.3834Z" stroke="#F4F3F4" stroke-miterlimit="10"/>
</svg>
