<svg width="41" height="41" viewBox="0 0 41 41" fill="none" xmlns="http://www.w3.org/2000/svg">
<path d="M16.6563 8.11475C15.9487 8.11475 15.3751 8.68839 15.3751 9.396C15.3751 10.1036 15.9487 10.6772 16.6563 10.6772V8.11475ZM21.6533 10.6772C22.3609 10.6772 22.9346 10.1036 22.9346 9.396C22.9346 8.68839 22.3609 8.11475 21.6533 8.11475V10.6772ZM16.2086 29.0745C16.1993 28.367 15.6181 27.8009 14.9106 27.8103C14.203 27.8195 13.637 28.4007 13.6463 29.1083L16.2086 29.0745ZM19.1549 33.3127L19.1723 32.0316C19.1607 32.0314 19.1491 32.0314 19.1373 32.0316L19.1549 33.3127ZM24.6632 29.1083C24.6726 28.4007 24.1065 27.8195 23.3991 27.8103C22.6915 27.8009 22.1103 28.367 22.1011 29.0745L24.6632 29.1083ZM14.9258 30.3726C15.6334 30.3726 16.207 29.799 16.207 29.0914C16.207 28.3838 15.6334 27.8101 14.9258 27.8101V30.3726ZM13.0469 29.0914L13.0363 30.3726H13.0469V29.0914ZM9.99385 25.9122L11.2751 25.921V25.9122H9.99385ZM11.5579 19.2633L12.8194 19.487C12.8224 19.4704 12.825 19.4538 12.8273 19.4371L11.5579 19.2633ZM19.1549 12.2096L19.2073 10.9294C19.1723 10.928 19.1371 10.928 19.1021 10.9294L19.1549 12.2096ZM26.7517 19.2582L25.4824 19.4326C25.4844 19.4471 25.4866 19.4615 25.489 19.4758L26.7517 19.2582ZM27.0848 21.6499L28.3519 21.4597L28.3515 21.4577L27.0848 21.6499ZM28.3158 25.907H27.0344L27.0346 25.9166L28.3158 25.907ZM25.2627 29.088V30.3692H25.2733L25.2627 29.088ZM23.3821 27.8067C22.6746 27.8067 22.1009 28.3804 22.1009 29.088C22.1009 29.7955 22.6746 30.3692 23.3821 30.3692V27.8067ZM14.9258 27.8067C14.2181 27.8067 13.6445 28.3804 13.6445 29.088C13.6445 29.7955 14.2181 30.3692 14.9258 30.3692V27.8067ZM23.3821 30.3692C24.0897 30.3692 24.6634 29.7955 24.6634 29.088C24.6634 28.3804 24.0897 27.8067 23.3821 27.8067V30.3692ZM16.6563 10.6772H21.6533V8.11475H16.6563V10.6772ZM13.6463 29.1083C13.6863 32.1481 16.1303 34.6353 19.1723 34.5937L19.1373 32.0316C17.5718 32.0528 16.2307 30.7604 16.2086 29.0745L13.6463 29.1083ZM19.1373 34.5937C22.1793 34.6353 24.6232 32.1481 24.6632 29.1083L22.1011 29.0745C22.0789 30.7604 20.7378 32.0528 19.1723 32.0316L19.1373 34.5937ZM14.9258 27.8101H13.0469V30.3726H14.9258V27.8101ZM13.0576 27.8101C12.0961 27.8023 11.2678 26.987 11.2751 25.921L8.71263 25.9033C8.69596 28.3218 10.6004 30.3523 13.0363 30.3726L13.0576 27.8101ZM11.2751 25.9122C11.2751 25.439 11.4343 24.9499 11.7142 24.2571C11.9661 23.6336 12.3529 22.7707 12.4918 21.8451L9.95784 21.4638C9.87522 22.0143 9.64646 22.5344 9.33826 23.2972C9.05806 23.9908 8.7126 24.8923 8.7126 25.9122H11.2751ZM12.4918 21.8451C12.6495 20.7996 12.7252 20.0186 12.8194 19.487L10.2963 19.0397C10.204 19.5604 10.08 20.6541 9.95784 21.4638L12.4918 21.8451ZM12.8273 19.4371C13.2835 16.1033 15.9887 13.6222 19.2075 13.4898L19.1021 10.9294C14.5974 11.1148 10.9066 14.5724 10.2885 19.0896L12.8273 19.4371ZM19.1023 13.4898C22.3196 13.6219 25.0244 16.1007 25.4824 19.4326L28.021 19.0838C27.4003 14.5688 23.7101 11.1143 19.2073 10.9294L19.1023 13.4898ZM25.489 19.4758C25.5838 20.0258 25.6595 20.7967 25.8181 21.8421L28.3515 21.4577C28.2302 20.658 28.1028 19.5532 28.0143 19.0406L25.489 19.4758ZM25.8177 21.84C25.9566 22.7656 26.3435 23.6285 26.5953 24.252C26.8752 24.9447 27.0344 25.4338 27.0344 25.907H29.5971C29.5971 24.8872 29.2515 23.9857 28.9713 23.2921C28.6631 22.5293 28.4345 22.0102 28.3519 21.4597L25.8177 21.84ZM27.0346 25.9166C27.0424 26.9831 26.2139 27.7988 25.2521 27.8067L25.2733 30.3692C27.71 30.3489 29.6148 28.3168 29.5969 25.8975L27.0346 25.9166ZM25.2627 27.8067H23.3821V30.3692H25.2627V27.8067ZM14.9258 30.3692H23.3821V27.8067H14.9258V30.3692Z" fill="#7A797C"/>
</svg>
