<svg width="35" height="35" viewBox="0 0 35 35" fill="none" xmlns="http://www.w3.org/2000/svg">
<path d="M14.875 3.41456C11.933 3.41456 9.05708 4.28696 6.6109 5.92145C4.16472 7.55593 2.25815 9.87909 1.1323 12.5971C0.00644507 15.3152 -0.28813 18.3061 0.285826 21.1915C0.859781 24.077 2.27649 26.7275 4.35679 28.8078C6.4371 30.8881 9.08757 32.3048 11.973 32.8787C14.8585 33.4527 17.8494 33.1581 20.5674 32.0323C23.2855 30.9064 25.6086 28.9998 27.2431 26.5537C28.8776 24.1075 29.75 21.2316 29.75 18.2896C29.7516 16.3357 29.368 14.4007 28.621 12.5952C27.874 10.7898 26.7784 9.14934 25.3968 7.76775C24.0152 6.38616 22.3748 5.29053 20.5693 4.54357C18.7639 3.7966 16.8289 3.41294 14.875 3.41456ZM14.875 29.6646C12.6252 29.6646 10.426 28.9974 8.5554 27.7475C6.68479 26.4976 5.22682 24.7211 4.36588 22.6426C3.50493 20.5641 3.27967 18.2769 3.71857 16.0704C4.15748 13.8639 5.24085 11.837 6.83167 10.2462C8.42249 8.65539 10.4493 7.57203 12.6559 7.13312C14.8624 6.69422 17.1495 6.91948 19.228 7.78043C21.3065 8.64137 23.0831 10.0993 24.333 11.9699C25.5829 13.8406 26.25 16.0398 26.25 18.2896C26.253 19.7842 25.9608 21.2647 25.3902 22.6461C24.8197 24.0276 23.9819 25.2827 22.925 26.3396C21.8682 27.3964 20.613 28.2342 19.2316 28.8048C17.8501 29.3754 16.3696 29.6676 14.875 29.6646ZM20.125 16.9771H16.625V13.4771C16.625 13.0129 16.4406 12.5678 16.1124 12.2396C15.7843 11.9114 15.3391 11.7271 14.875 11.7271C14.4109 11.7271 13.9658 11.9114 13.6376 12.2396C13.3094 12.5678 13.125 13.0129 13.125 13.4771V16.9771H9.62501C9.16088 16.9771 8.71576 17.1614 8.38757 17.4896C8.05938 17.8178 7.87501 18.2629 7.87501 18.7271C7.87501 19.1912 8.05938 19.6363 8.38757 19.9645C8.71576 20.2927 9.16088 20.4771 9.62501 20.4771H13.125V23.9771C13.125 24.4412 13.3094 24.8863 13.6376 25.2145C13.9658 25.5427 14.4109 25.7271 14.875 25.7271C15.3391 25.7271 15.7843 25.5427 16.1124 25.2145C16.4406 24.8863 16.625 24.4412 16.625 23.9771V20.4771H20.125C20.5891 20.4771 21.0343 20.2927 21.3624 19.9645C21.6906 19.6363 21.875 19.1912 21.875 18.7271C21.875 18.2629 21.6906 17.8178 21.3624 17.4896C21.0343 17.1614 20.5891 16.9771 20.125 16.9771Z" fill="#7A797C"/>
</svg>
