<svg width="48" height="48" viewBox="0 0 48 48" fill="none" xmlns="http://www.w3.org/2000/svg">
<path fill-rule="evenodd" clip-rule="evenodd" d="M35.4337 19.9361L13.561 8.91535C12.9895 8.58104 12.2902 8.54928 11.6907 8.83041C11.0913 9.11153 10.6685 9.66954 10.5601 10.3227C10.5675 10.5397 10.6198 10.7528 10.7137 10.9486L14.8781 21.0094C15.0872 21.6774 15.2009 22.3717 15.2161 23.0715C15.201 23.7713 15.0872 24.4656 14.8781 25.1336L10.7137 35.1944C10.6198 35.3902 10.5675 35.6033 10.5601 35.8203C10.6692 36.4725 11.092 37.0295 11.6907 37.31C12.2896 37.5907 12.988 37.5591 13.5591 37.2257L35.4337 26.2049C36.6534 25.6384 37.4337 24.4155 37.4337 23.0705C37.4337 21.7256 36.6534 20.5027 35.4337 19.9361Z" fill="#C6D300" stroke="#C6D300" stroke-linecap="round" stroke-linejoin="round"/>
</svg>
