<svg width="41" height="41" viewBox="0 0 41 41" fill="none" xmlns="http://www.w3.org/2000/svg">
<path fill-rule="evenodd" clip-rule="evenodd" d="M12.6105 31.3797L8.42143 22.3477C7.85952 21.4549 7.85952 20.3073 8.42143 19.4145L12.5838 10.5243C13.221 9.55427 14.2935 8.98079 15.4337 9.00049H20.4956H25.5574C26.6975 8.98079 27.77 9.55427 28.4072 10.5243L32.5614 19.4077C33.1233 20.3005 33.1233 21.4481 32.5614 22.3409L28.3806 31.3797C27.7439 32.3597 26.6639 32.9394 25.5157 32.9172H15.4737C14.3261 32.9389 13.2469 32.3592 12.6105 31.3797Z" stroke="#7A797C" stroke-width="2" stroke-linecap="round" stroke-linejoin="round"/>
<path fill-rule="evenodd" clip-rule="evenodd" d="M23.6625 21.4167C23.6625 23.3037 22.171 24.8333 20.3312 24.8333C18.4914 24.8333 17 23.3037 17 21.4167C17 19.5298 18.4914 18 20.3312 18C22.171 18 23.6625 19.5298 23.6625 21.4167Z" stroke="#7A797C" stroke-width="2" stroke-linecap="round" stroke-linejoin="round"/>
</svg>
