<svg width="41" height="41" viewBox="0 0 41 41" fill="none" xmlns="http://www.w3.org/2000/svg">
<path d="M6.59552 24.2888C9.63538 27.3108 14.9369 31.4998 20.9684 31.4998C26.9999 31.4998 32.3003 27.3108 35.3403 24.2888C36.142 23.4918 36.5441 23.0919 36.7994 22.3093C36.9816 21.7511 36.9816 20.7489 36.7994 20.1907C36.5441 19.4081 36.142 19.0082 35.3403 18.211C32.3003 15.189 26.9999 11 20.9684 11C14.9369 11 9.63538 15.189 6.59552 18.211C5.79319 19.0087 5.39199 19.4077 5.13661 20.1907C4.95446 20.7489 4.95446 21.7511 5.13661 22.3093C5.39199 23.0923 5.79319 23.4912 6.59552 24.2888Z" stroke="#7A797C" stroke-width="2" stroke-linecap="round" stroke-linejoin="round"/>
<path d="M17.5514 21.25C17.5514 23.137 19.081 24.6667 20.9681 24.6667C22.8551 24.6667 24.3847 23.137 24.3847 21.25C24.3847 19.363 22.8551 17.8333 20.9681 17.8333C19.081 17.8333 17.5514 19.363 17.5514 21.25Z" stroke="#7A797C" stroke-width="2" stroke-linecap="round" stroke-linejoin="round"/>
</svg>
