<svg width="41" height="41" viewBox="0 0 41 41" fill="none" xmlns="http://www.w3.org/2000/svg">
<path fill-rule="evenodd" clip-rule="evenodd" d="M18.48 13.51C18.48 15.3215 17.0115 16.79 15.2 16.79C13.3885 16.79 11.92 15.3215 11.92 13.51C11.92 11.6985 13.3885 10.23 15.2 10.23C17.0115 10.23 18.48 11.6985 18.48 13.51Z" stroke="#7A797C" stroke-width="2" stroke-linecap="round" stroke-linejoin="round"/>
<path fill-rule="evenodd" clip-rule="evenodd" d="M23.4 27.45C23.4 30.6201 19.728 33.19 15.2 33.19C10.672 33.19 7 30.6201 7 27.45C7 24.2798 10.672 21.71 15.2 21.71C19.728 21.71 23.4 24.2798 23.4 27.45Z" stroke="#7A797C" stroke-width="2" stroke-linecap="round" stroke-linejoin="round"/>
<path d="M31.19 10.23C31.19 9.5507 30.6393 9 29.96 9C29.2807 9 28.73 9.5507 28.73 10.23H31.19ZM28.73 13.51C28.73 14.1893 29.2807 14.74 29.96 14.74C30.6393 14.74 31.19 14.1893 31.19 13.51H28.73ZM31.19 13.51C31.19 12.8307 30.6393 12.28 29.96 12.28C29.2807 12.28 28.73 12.8307 28.73 13.51H31.19ZM28.73 16.79C28.73 17.4693 29.2807 18.02 29.96 18.02C30.6393 18.02 31.19 17.4693 31.19 16.79H28.73ZM29.96 14.74C30.6393 14.74 31.19 14.1893 31.19 13.51C31.19 12.8307 30.6393 12.28 29.96 12.28V14.74ZM26.68 12.28C26.0007 12.28 25.45 12.8307 25.45 13.51C25.45 14.1893 26.0007 14.74 26.68 14.74V12.28ZM29.96 12.28C29.2807 12.28 28.73 12.8307 28.73 13.51C28.73 14.1893 29.2807 14.74 29.96 14.74V12.28ZM33.24 14.74C33.9193 14.74 34.47 14.1893 34.47 13.51C34.47 12.8307 33.9193 12.28 33.24 12.28V14.74ZM28.73 10.23V13.51H31.19V10.23H28.73ZM28.73 13.51V16.79H31.19V13.51H28.73ZM29.96 12.28H26.68V14.74H29.96V12.28ZM29.96 14.74H33.24V12.28H29.96V14.74Z" fill="#7A797C"/>
</svg>
